<svg width="102" height="91" viewBox="0 0 102 91" fill="none" xmlns="http://www.w3.org/2000/svg">
<path d="M64.439 87.4453H30.0317V23.5738H39.5018V32.6891C39.5018 33.6707 40.2977 34.4664 41.2791 34.4664C42.2605 34.4664 43.0564 33.6707 43.0564 32.6891V23.5738H67.3277V32.6891C67.3277 33.6707 68.1236 34.4664 69.105 34.4664C70.0865 34.4664 70.8824 33.6707 70.8824 32.6891V23.5738H80.0565V42.1911C80.0565 43.1727 80.8522 43.9685 81.8338 43.9685C82.8153 43.9685 83.6112 43.1727 83.6112 42.1911V21.7965C83.6112 20.8148 82.8153 20.0191 81.8338 20.0191H70.8824V15.6141C70.8822 7.00433 63.8437 0 55.192 0C53.2111 0 51.3149 0.367199 49.5683 1.03672C47.8217 0.367199 45.9254 0 43.9446 0C35.2928 0 28.2544 7.00433 28.2544 15.6141V20.0191H17.3027C16.3213 20.0191 15.5254 20.8148 15.5254 21.7965V82.5708C15.5254 87.2185 19.3122 91 23.9667 91H70.5086C67.9023 91 65.6307 89.5666 64.439 87.4453ZM55.192 3.55469C61.8835 3.55469 67.3275 8.96457 67.3275 15.6141V20.0191H59.6348V15.6141C59.6348 10.7965 57.4309 6.48144 53.9738 3.61512C54.3746 3.57513 54.7809 3.55469 55.192 3.55469ZM49.5683 4.92946C53.4361 6.94781 56.0801 10.9799 56.0801 15.6141V20.0191H43.0564V15.6141C43.0564 10.9799 45.7004 6.94781 49.5683 4.92946ZM31.8091 15.6141C31.8091 8.96457 37.2531 3.55469 43.9446 3.55469C44.3557 3.55469 44.762 3.57513 45.1628 3.61494C41.7057 6.48144 39.5018 10.7963 39.5018 15.614V20.0189H31.8091V15.6141ZM26.477 87.4453H23.9667C21.2723 87.4453 19.0801 85.2586 19.0801 82.5708V23.5738H26.4769V87.4453H26.477Z" fill="#DDDDDD"/>
<path d="M94.6701 91H68.731C64.8887 91 61.7739 87.8852 61.7739 84.0429V51.4401H101.627V84.0429C101.627 87.8852 98.5123 91 94.6701 91Z" fill="#DE5150"/>
<path d="M89.3198 62.0187C88.3384 62.0187 87.5425 61.2228 87.5425 60.2413V50.3886C87.5425 47.1833 84.9095 44.5756 81.6733 44.5756C78.437 44.5756 75.8042 47.1833 75.8042 50.3886V60.2413C75.8042 61.2228 75.0083 62.0187 74.0269 62.0187C73.0452 62.0187 72.2495 61.2228 72.2495 60.2413V50.3886C72.2495 45.2231 76.4771 41.0209 81.6733 41.0209C86.8696 41.0209 91.0972 45.2233 91.0972 50.3886V60.2413C91.0972 61.2229 90.3013 62.0187 89.3198 62.0187Z" fill="black"/>
<path d="M93.4268 76.7617C89.8649 73.1999 80.3283 68.2132 70.6768 76.7617" stroke="white" stroke-width="4" stroke-linecap="round" stroke-linejoin="round"/>
<path d="M19.5833 42.1667C30.3989 42.1667 39.1667 33.3989 39.1667 22.5833C39.1667 11.7678 30.3989 3 19.5833 3C8.76776 3 0 11.7678 0 22.5833C0 33.3989 8.76776 42.1667 19.5833 42.1667Z" fill="#666666"/>
<path d="M19.5987 34.3333C18.739 34.3333 18.0281 34.0454 17.47 33.4696C16.9119 32.8939 16.6318 32.1967 16.6318 31.3781C16.6318 30.5243 16.9138 29.8232 17.4798 29.2768C18.0418 28.7305 18.7508 28.4583 19.5987 28.4583C20.4584 28.4583 21.1634 28.7344 21.7118 29.2866C22.2601 29.8389 22.5343 30.536 22.5343 31.3781C22.5343 32.232 22.262 32.9389 21.7196 33.4951C21.1771 34.0512 20.4702 34.3333 19.5987 34.3333Z" fill="white"/>
<path d="M22.2114 11.6655L21.6455 25.7303C21.6279 26.1611 21.2675 26.4999 20.8308 26.4999H18.2713C17.8326 26.4999 17.4742 26.1592 17.4566 25.7283L16.922 11.6655C16.9044 11.2112 17.2745 10.8333 17.7367 10.8333H21.3987C21.8589 10.8333 22.2291 11.2112 22.2114 11.6655Z" fill="white"/>
</svg>
