<svg width="20" height="16" viewBox="0 0 20 16" fill="none" xmlns="http://www.w3.org/2000/svg">
<path d="M19.5883 15.0177C19.4353 15.0177 19.2912 14.9317 19.2205 14.7903C19.1968 14.7446 17.3115 11.2488 9.44395 11.1299V14.6064C9.44395 14.763 9.35479 14.906 9.2144 14.9751C9.07421 15.0442 8.90713 15.0282 8.78226 14.933L0.161661 8.32648C0.0600627 8.24856 0 8.12804 0 8.00035C0 7.872 0.0600627 7.75154 0.161661 7.67342L8.78266 1.0672C8.90774 0.971817 9.07461 0.955698 9.2148 1.02446C9.3552 1.09308 9.44435 1.23668 9.44435 1.39292V5.05661C9.65243 5.04337 9.92352 5.03187 10.2434 5.03187C13.1771 5.03187 20 5.96504 20 14.6055C20 14.7967 19.8686 14.9629 19.6823 15.0063C19.6509 15.0144 19.62 15.0177 19.5883 15.0177Z" fill="white"/>
</svg>
